# xmcd
#
# Track frame offsets:
#	182
#	18145
#	34412
#	51762
#	64587
#	80682
#	94077
#	109815
#	125457
#	142470
#	156895
#	171882
#	190970
#	210270
#	224682
#	242232
#	260887
#	274020
#
# Disc length: 3853 seconds
#
# Revision: 1
# Processed by: cddbd v1.4PL0 Copyright (c) Steve Scherf et al.
# Submitted via: audiograbber 1.81.03
#
DISCID=140f0b12
DTITLE=The Bellamy Brothers - Best of
DYEAR=2000
DGENRE=Country
TTITLE0=Neon Cowboy
TTITLE1=Crossfire
TTITLE2=Fly me to Eden
TTITLE3=Let your love flow (Remake '91)
TTITLE4=Crazy from the heart
TTITLE5=Blue California
TTITLE6=Do you wanna dance with me
TTITLE7=Forever is a long way
TTITLE8=Save your love
TTITLE9=Life goes by
TTITLE10=Big love
TTITLE11=Hemingway Hideaway
TTITLE12=Take me home
TTITLE13=Miami Moon
TTITLE14=Blame it ... on the fire in my heart
TTITLE15=Beggars and Heroes
TTITLE16=Too late
TTITLE17=On a summernight
EXTD=
EXTT0=
EXTT1=
EXTT2=
EXTT3=
EXTT4=
EXTT5=
EXTT6=
EXTT7=
EXTT8=
EXTT9=
EXTT10=
EXTT11=
EXTT12=
EXTT13=
EXTT14=
EXTT15=
EXTT16=
EXTT17=
PLAYORDER=
